<svg xmlns="http://www.w3.org/2000/svg" width="51" height="50" viewBox="0 0 51 50" fill="none">
  <path d="M31.1969 18.0863C33.0424 18.3898 34.827 18.9882 36.4824 19.8584C34.8272 18.987 33.0426 18.3875 31.1969 18.083C28.4368 17.6337 25.6092 17.855 22.9526 18.7282C20.296 19.6014 17.8884 21.1008 15.9331 23.1C16.9229 25.7158 18.5279 28.0549 20.6123 29.9197C22.6967 31.7845 25.1994 33.1202 27.9088 33.8139C27.8102 33.9336 27.7101 34.0517 27.6087 34.168C27.7093 34.0517 27.8099 33.9345 27.9088 33.8139C29.6783 31.6483 30.9008 29.0886 31.4729 26.3511C32.0451 23.6136 31.9501 20.7786 31.1961 18.0855" fill="white"/>
  <path d="M20.6117 29.9216C18.5244 28.0606 16.9186 25.7222 15.9313 23.1059C13.7975 25.2911 12.2763 27.9994 11.5207 30.9587C10.7651 33.918 10.8016 37.024 11.6266 39.9648C14.5633 40.4459 17.5744 40.1656 20.3719 39.1509C23.1694 38.1362 25.6599 36.4209 27.6053 34.1689C27.7059 34.0526 27.8073 33.9354 27.9053 33.8157C25.1944 33.126 22.6907 31.7902 20.6084 29.9224" fill="#3DBEE3"/>
  <path d="M31.196 18.0855C30.8255 16.7729 30.3022 15.5083 29.6367 14.3178C29.4206 13.9299 29.1907 13.5525 28.9469 13.1857C28.823 13.0003 28.6975 12.8158 28.5678 12.6355C28.5479 12.6072 28.5279 12.5781 28.5072 12.5523V12.5465C26.1266 9.26764 22.6724 6.92659 18.7449 5.9303C16.8083 8.29276 15.5283 11.1238 15.0338 14.1383C14.5393 17.1528 14.8477 20.2443 15.928 23.1017C17.8836 21.1024 20.2915 19.603 22.9484 18.7299C25.6053 17.8569 28.4333 17.6359 31.1935 18.0855" fill="#E8E11B"/>
  <path d="M11.6292 39.9639C10.8032 37.0231 10.7658 33.9167 11.5209 30.9569C12.2759 27.9971 13.7968 25.2882 15.9305 23.1025C14.8496 20.2452 14.5408 17.1535 15.035 14.1388C15.5292 11.1241 16.8091 8.29287 18.7457 5.93024C18.6236 5.90032 18.503 5.8704 18.38 5.84214C18.257 5.81388 18.1307 5.78479 18.001 5.75902C14.6943 5.06254 11.2561 5.34857 8.10994 6.58189C7.47778 7.1095 6.89823 7.69712 6.37941 8.33652C5.84857 8.9261 5.35373 9.5337 4.89492 10.1593C2.74798 13.067 1.2577 16.4061 0.52698 19.9459C-0.20374 23.4857 -0.15749 27.1419 0.662539 30.6621C0.828775 31.3786 1.02909 32.0931 1.26348 32.8057C1.48346 33.5995 1.77934 34.3702 2.14703 35.1073C4.53406 37.4967 7.56768 39.136 10.8744 39.8234C11.1255 39.8755 11.3748 39.922 11.6225 39.963" fill="#004F87"/>
  <path d="M44.6612 29.1087C44.5276 28.754 44.3833 28.4063 44.2281 28.0655C43.0429 25.4595 41.2338 23.1858 38.9608 21.4452C36.6878 19.7047 34.0209 18.5511 31.196 18.0863C31.95 20.7794 32.045 23.6144 31.4728 26.352C30.9007 29.0895 29.6782 31.6491 27.9087 33.8148C30.8683 34.5707 33.9748 34.5338 36.9157 33.7078C39.8565 32.8818 42.5279 31.295 44.6612 29.1087Z" fill="#7EAF00"/>
  <path d="M44.7968 29.4818C44.7525 29.3566 44.7073 29.2325 44.6613 29.1095C42.5281 31.2958 39.8567 32.8818 36.9158 33.7078C33.975 34.5338 30.8685 34.5707 27.9088 33.8148C27.8108 33.9345 27.7102 34.0517 27.6088 34.168C25.6634 36.42 23.1729 38.1353 20.3754 39.1501C17.5779 40.1648 14.5668 40.445 11.6301 39.9639C11.6628 40.0803 11.6969 40.1966 11.7324 40.313C11.7714 40.4402 11.8105 40.5673 11.8529 40.6945C12.1085 41.4713 12.4182 42.2292 12.7797 42.9628C13.904 45.2489 15.5196 47.2584 17.5107 48.8476C18.284 49.1313 19.0829 49.3396 19.8962 49.4693C20.672 49.6317 21.4458 49.7561 22.2177 49.8425C25.8097 50.2478 29.4468 49.8686 32.8778 48.731C36.3089 47.5934 39.4521 45.7246 42.0905 43.2537C42.6269 42.7506 43.145 42.22 43.6448 41.662C44.2219 41.0758 44.7416 40.4356 45.1966 39.7503C46.0715 36.4863 45.9724 33.0376 44.9115 29.8293C44.8733 29.7129 44.8339 29.5971 44.7935 29.4818" fill="#387E2F"/>
  <path d="M19.2411 5.35012C19.0749 5.54046 18.9087 5.73413 18.7424 5.93195C22.669 6.92734 26.1228 9.26685 28.5038 12.544V12.5498C28.5246 12.5781 28.5446 12.6072 28.5645 12.6329C28.6942 12.8141 28.8197 12.9978 28.9435 13.1832C29.1873 13.5522 29.4173 13.9296 29.6334 14.3153C30.2996 15.5065 30.8235 16.772 31.1944 18.0855C34.0192 18.5509 36.686 19.7049 38.9591 21.4455C41.2321 23.1861 43.0415 25.4597 44.2273 28.0655C44.3819 28.4063 44.5263 28.754 44.6604 29.1087C44.7177 29.0497 44.7751 28.989 44.8316 28.9283C44.8881 28.8676 44.9521 28.8011 45.0111 28.7363C45.0701 28.6715 45.125 28.6133 45.1774 28.5509C47.4341 26.0359 48.9054 22.9154 49.4097 19.5742C49.2682 18.7626 49.0489 17.9665 48.7548 17.197C48.5071 16.4439 48.2281 15.7108 47.9178 14.9977C46.4738 11.6858 44.3285 8.72669 41.6298 6.32449C38.9311 3.92229 35.7434 2.13421 32.2866 1.08366C31.5817 0.870318 30.8614 0.686627 30.1255 0.532581C29.328 0.325761 28.5124 0.196602 27.6901 0.146912C24.4265 1.02003 21.4896 2.82869 19.2411 5.35012Z" fill="#DE3329"/>
  <path d="M49.4149 19.5708C48.9106 22.9121 47.4393 26.0326 45.1825 28.5476C45.1268 28.6108 45.0703 28.6714 45.0163 28.7338C44.9623 28.7961 44.8974 28.8618 44.8368 28.9258L44.6655 29.1062C44.7121 29.2297 44.7572 29.3539 44.801 29.4785C44.8415 29.5943 44.8808 29.7104 44.919 29.8268C45.9794 33.0351 46.0774 36.4836 45.2008 39.747C47.8041 36.1768 49.4187 31.9826 49.8812 27.5884V27.5818C49.8812 27.5552 49.887 27.5286 49.8895 27.4986C50.1537 24.847 49.995 22.1702 49.4191 19.5683" fill="#980321"/>
  <path d="M11.7315 40.313C11.6961 40.1967 11.662 40.0803 11.6293 39.9639C11.3794 39.9229 11.13 39.8764 10.8812 39.8243C7.57432 39.1373 4.54061 37.4979 2.15381 35.1082C3.94313 39.1465 6.76568 42.6417 10.3368 45.2411C10.3592 45.2586 10.3825 45.2744 10.4058 45.291C12.5692 46.8457 14.966 48.0466 17.5066 48.8484C15.5156 47.2589 13.9003 45.2492 12.7763 42.9628C12.4149 42.2293 12.1052 41.4713 11.8496 40.6945C11.808 40.5682 11.7664 40.441 11.729 40.313" fill="#0B4531"/>
  <path d="M18.0003 5.75738C18.1278 5.78398 18.2544 5.81169 18.3802 5.8405C18.5023 5.86876 18.6237 5.89785 18.745 5.92944C18.9055 5.73411 19.07 5.54044 19.2438 5.34761C21.492 2.82707 24.4283 1.01901 27.6911 0.146063C24.1578 -0.238303 20.5831 0.138065 17.2074 1.24987C16.3681 1.52658 15.5439 1.84674 14.7379 2.20906C12.3105 3.30618 10.0728 4.7819 8.1084 6.58109C11.2546 5.34777 14.6928 5.06173 17.9995 5.75821" fill="#001A31"/>
</svg>